<svg width="1552" height="318" viewBox="0 0 1552 318" fill="none" xmlns="http://www.w3.org/2000/svg">
<path d="M705.49 83.7162C711.887 75.5927 722.681 62.27 722.681 52.5217C722.681 46.6728 717.884 40.1739 709.888 40.1739C680.704 40.1739 645.523 107.437 632.33 125.959C627.133 121.085 623.934 116.535 615.539 116.86C581.557 118.485 502 150.979 502 189.323C502 200.696 513.194 231.89 531.184 231.89C549.175 231.89 586.354 200.371 600.347 190.622C598.748 198.746 597.149 207.194 597.149 215.318C597.149 225.716 603.145 238.714 618.337 238.714C647.521 238.714 688.699 204.595 707.489 187.698L704.691 176.975C691.898 183.799 655.117 210.119 641.525 210.119C632.729 210.119 632.33 199.071 632.33 193.872C632.33 173.076 651.519 151.954 664.712 135.057L705.49 83.7162ZM618.737 145.13C612.34 164.302 547.975 203.295 543.178 202.32C538.78 201.67 536.781 199.071 537.181 196.146C539.58 174.7 548.375 163.652 618.737 145.13Z" fill="#231F1E"/>
<path d="M814.222 180.874C798.231 190.297 777.442 207.519 756.253 207.519C737.863 207.519 731.867 200.371 735.065 187.048C751.856 177.625 791.434 148.705 791.434 132.458C791.434 125.309 780.64 123.359 773.844 123.359C749.857 123.359 699.884 162.027 699.884 201.67C699.884 218.243 710.678 240.339 734.265 240.339C764.649 240.339 799.83 211.094 817.82 193.222L814.222 180.874ZM795.432 116.86C812.623 116.86 827.415 100.938 827.415 87.9405C827.415 82.0915 821.418 77.8673 814.222 77.8673C798.631 77.8673 779.441 89.5652 779.441 102.888C779.441 110.686 785.837 116.86 795.432 116.86Z" fill="#231F1E"/>
<path d="M895.107 232.865C873.119 245.863 812.351 286.805 812.351 310.201C812.351 314.426 815.949 318 821.546 318C837.138 318 872.319 297.204 914.296 242.938L998.651 191.597L996.652 177.95L935.885 213.368L935.085 212.719L965.069 167.227C967.867 163.002 973.464 155.529 973.464 150.654C973.464 145.13 966.268 134.082 958.273 134.082C951.876 134.082 947.079 139.606 943.081 143.181L900.304 181.524C885.112 194.847 860.725 202.645 849.531 201.67C845.933 201.67 843.534 201.021 843.135 198.421C839.537 174.7 869.121 165.602 894.307 154.554L939.882 134.407C945.08 131.483 953.075 126.934 953.075 121.085C953.075 113.936 937.484 112.636 931.887 112.961C901.103 115.236 813.95 149.68 813.95 192.247C813.95 206.545 821.546 230.265 843.934 230.265C865.922 230.265 907.9 200.696 922.292 187.698L923.092 188.348L895.107 232.865Z" fill="#231F1E"/>
<path d="M1102.74 180.874C1086.75 190.297 1065.96 207.519 1044.77 207.519C1026.38 207.519 1020.38 200.371 1023.58 187.048C1040.37 177.625 1079.95 148.705 1079.95 132.458C1079.95 125.309 1069.16 123.359 1062.36 123.359C1038.37 123.359 988.4 162.027 988.4 201.67C988.4 218.243 999.194 240.339 1022.78 240.339C1053.17 240.339 1088.35 211.094 1106.34 193.222L1102.74 180.874ZM1083.95 116.86C1101.14 116.86 1115.93 100.938 1115.93 87.9405C1115.93 82.0915 1109.93 77.8673 1102.74 77.8673C1087.15 77.8673 1067.96 89.5652 1067.96 102.888C1067.96 110.686 1074.35 116.86 1083.95 116.86Z" fill="#231F1E"/>
<path d="M1218.8 98.3387C1222.8 93.7895 1234.4 83.0664 1234.4 77.2174C1234.4 72.0183 1226.8 71.0435 1221.6 71.0435C1198.41 71.0435 1189.62 86.3158 1177.63 99.6384C1134.85 100.938 1131.65 106.137 1110.06 134.732L1105.66 140.581C1126.85 137.982 1119.26 139.281 1143.64 139.281C1128.85 159.753 1106.86 176.325 1082.88 191.272L1087.27 203.62L1107.66 190.297L1108.46 190.947C1103.27 200.371 1098.07 212.719 1098.07 223.442C1098.07 236.439 1107.66 245.213 1123.26 245.213C1157.24 245.213 1200.41 210.444 1224 192.897L1222 178.6C1180.42 202.645 1166.03 212.394 1153.24 212.394C1144.04 212.394 1141.25 208.169 1141.25 201.021C1141.25 181.524 1164.03 154.879 1177.63 140.581C1221.6 142.856 1224.8 130.833 1243.59 99.9634L1218.8 98.3387Z" fill="#231F1E"/>
<path d="M1345.13 145.455L1345.93 146.105C1266.77 211.094 1254.38 210.119 1246.39 211.419C1240.39 212.394 1238.79 206.545 1238.39 204.92C1238.39 188.998 1249.98 169.176 1345.13 145.455ZM1323.54 189.323L1324.34 189.973C1319.15 198.746 1309.55 215.968 1309.55 226.366C1309.55 235.789 1315.55 243.588 1328.74 243.588C1348.33 243.588 1401.9 208.819 1419.09 192.897L1415.89 180.874C1398.7 190.297 1375.92 206.87 1359.13 206.87C1352.73 206.87 1346.73 204.595 1346.73 199.071C1346.73 183.799 1381.51 161.053 1381.51 150.654C1381.51 143.506 1377.52 139.931 1369.92 137.332C1373.52 136.357 1383.91 133.108 1383.91 129.208C1383.91 125.309 1376.32 113.286 1357.93 113.611C1311.55 114.586 1207.61 156.178 1209.21 196.796C1210.01 213.693 1233.19 235.14 1244.39 235.14C1253.58 235.14 1279.17 218.243 1286.76 213.368L1323.54 189.323Z" fill="#231F1E"/>
<path d="M1459.99 143.181C1478.78 109.712 1501.57 80.4668 1521.16 72.6682C1513.96 91.1899 1489.18 122.384 1460.79 143.831L1459.99 143.181ZM1537.95 177.625C1521.96 189.323 1491.18 210.119 1469.19 210.119C1458.39 210.119 1452.8 203.62 1449.2 196.146C1447.2 188.348 1448.4 179.249 1452 173.725C1538.75 105.487 1549.14 76.8924 1551.94 46.0229C1552.34 41.7986 1550.74 34 1543.95 34C1531.15 34 1493.17 64.2197 1457.99 99.6384C1432.01 125.634 1414.02 162.352 1414.02 196.471C1414.02 215.643 1420.41 238.714 1449.6 238.714C1483.98 238.714 1521.56 205.895 1543.55 187.373L1537.95 177.625Z" fill="#231F1E"/>
<path fill-rule="evenodd" clip-rule="evenodd" d="M197.142 1.99683C185.196 5.81971 150.066 25.8064 96.4589 59.2779C82.4821 68.0045 71.0472 74.792 71.0472 74.3619C71.0472 73.9318 74.594 62.5684 78.9283 49.1106C91.0355 11.5184 91.0035 11.7911 84.1253 4.90735C76.3213 -2.90183 66.8692 0.906013 62.044 13.8013C59.9409 19.4229 43.4313 75.7334 14.0389 177.537L0 226.162L5.216 231.012C10.7376 236.146 18.5636 240.7 21.8639 240.7C28.0257 240.7 29.3863 237.077 43.1367 184.053C47.5692 166.959 51.3304 152.834 51.4947 152.664C51.659 152.494 58.3158 162.194 66.2871 174.22C98.7173 223.145 113.485 241.702 119.988 241.702C131.51 241.702 157.511 229.441 168.565 218.793C179.489 208.271 179.762 203.674 169.993 194.718C125.112 153.571 96.3447 122.687 88.5367 107.269C84.4289 99.157 84.6633 98.7219 97.3617 90.8605C118.016 78.0725 185.055 35.2949 206.353 21.3128L227.383 7.50607L224.61 4.85822C219.174 -0.330188 208.038 -1.49119 197.142 1.99683ZM391.662 2.57834C315.155 11.8864 272.101 39.8376 271.964 80.2852C271.879 105.572 282.216 112.442 337.558 123.886C383.591 133.405 392.207 138.417 385.687 151.893C380.499 162.619 366.124 169.808 341.065 174.209C325.909 176.87 280.516 176.762 263.917 174.025C238.369 169.812 231.87 174.718 240.455 191.737C243.015 196.811 244.188 201.412 246.379 214.96C249.521 234.383 250.043 235.31 259.789 238.737C278.41 245.286 314.038 238.501 354.591 220.683C422.629 190.788 451.148 141.891 414.735 117.56C402.501 109.384 388.029 104.71 352.11 97.3313C313.542 89.4088 306.098 85.6992 313.634 78.1577C327.857 63.9259 380.369 58.7606 444.477 65.2864C462.678 67.1392 466.352 59.4844 458.726 35.6017C448.752 4.36696 434.527 -2.63715 391.662 2.57834Z" fill="#F55A22"/>
</svg>
